<mxfile host="app.diagrams.net" modified="2022-12-27T22:55:52.922Z" agent="5.0 (Windows NT 10.0; Win64; x64) AppleWebKit/537.36 (KHTML, like Gecko) Chrome/108.0.0.0 Safari/537.36 Edg/108.0.1462.54" etag="AfBe0BD4bjAn7-zkflhr" version="20.7.4" type="github">
  <diagram id="9kdKJpnWaGgN2Vk8auk0" name="Page-1">
    <mxGraphModel dx="2261" dy="788" grid="1" gridSize="10" guides="1" tooltips="1" connect="1" arrows="1" fold="1" page="1" pageScale="1" pageWidth="827" pageHeight="1169" math="0" shadow="0">
      <root>
        <mxCell id="0" />
        <mxCell id="1" parent="0" />
        <mxCell id="PZGMw8TPTIG1YA5yIezn-1" value="" style="rounded=0;whiteSpace=wrap;html=1;strokeColor=default;strokeWidth=1;" vertex="1" parent="1">
          <mxGeometry x="-150" y="270" width="960" height="320" as="geometry" />
        </mxCell>
        <mxCell id="8QhAUfNBpxHzGQiZX4Sa-13" style="edgeStyle=orthogonalEdgeStyle;rounded=0;orthogonalLoop=1;jettySize=auto;html=1;exitX=1;exitY=0.5;exitDx=0;exitDy=0;entryX=0;entryY=0.5;entryDx=0;entryDy=0;" parent="1" target="8QhAUfNBpxHzGQiZX4Sa-5" edge="1">
          <mxGeometry relative="1" as="geometry">
            <mxPoint x="360" y="380" as="sourcePoint" />
          </mxGeometry>
        </mxCell>
        <mxCell id="8QhAUfNBpxHzGQiZX4Sa-18" style="edgeStyle=orthogonalEdgeStyle;rounded=0;orthogonalLoop=1;jettySize=auto;html=1;exitX=1;exitY=0.5;exitDx=0;exitDy=0;entryX=0;entryY=0.5;entryDx=0;entryDy=0;" parent="1" target="8QhAUfNBpxHzGQiZX4Sa-7" edge="1">
          <mxGeometry relative="1" as="geometry">
            <mxPoint x="360" y="380" as="sourcePoint" />
          </mxGeometry>
        </mxCell>
        <mxCell id="8QhAUfNBpxHzGQiZX4Sa-37" style="edgeStyle=orthogonalEdgeStyle;rounded=0;orthogonalLoop=1;jettySize=auto;html=1;exitX=0.5;exitY=0;exitDx=0;exitDy=0;entryX=0.5;entryY=1;entryDx=0;entryDy=0;" parent="1" source="8QhAUfNBpxHzGQiZX4Sa-5" target="8QhAUfNBpxHzGQiZX4Sa-28" edge="1">
          <mxGeometry relative="1" as="geometry" />
        </mxCell>
        <mxCell id="8QhAUfNBpxHzGQiZX4Sa-5" value="«interface»&lt;br&gt;&lt;b&gt;IOscillatorService&lt;/b&gt;" style="html=1;" parent="1" vertex="1">
          <mxGeometry x="440" y="520" width="160" height="40" as="geometry" />
        </mxCell>
        <mxCell id="8QhAUfNBpxHzGQiZX4Sa-40" style="edgeStyle=orthogonalEdgeStyle;rounded=0;orthogonalLoop=1;jettySize=auto;html=1;exitX=0.5;exitY=0;exitDx=0;exitDy=0;entryX=0.5;entryY=1;entryDx=0;entryDy=0;" parent="1" source="8QhAUfNBpxHzGQiZX4Sa-7" target="8QhAUfNBpxHzGQiZX4Sa-27" edge="1">
          <mxGeometry relative="1" as="geometry" />
        </mxCell>
        <mxCell id="8QhAUfNBpxHzGQiZX4Sa-7" value="«interface»&lt;br&gt;&lt;b&gt;ISynthesizerService&lt;/b&gt;" style="html=1;" parent="1" vertex="1">
          <mxGeometry x="440" y="360" width="160" height="40" as="geometry" />
        </mxCell>
        <mxCell id="8QhAUfNBpxHzGQiZX4Sa-31" style="edgeStyle=orthogonalEdgeStyle;rounded=0;orthogonalLoop=1;jettySize=auto;html=1;exitX=0;exitY=0.5;exitDx=0;exitDy=0;entryX=1;entryY=0.5;entryDx=0;entryDy=0;" parent="1" source="8QhAUfNBpxHzGQiZX4Sa-24" target="8QhAUfNBpxHzGQiZX4Sa-29" edge="1">
          <mxGeometry relative="1" as="geometry" />
        </mxCell>
        <mxCell id="8QhAUfNBpxHzGQiZX4Sa-38" style="edgeStyle=orthogonalEdgeStyle;rounded=0;orthogonalLoop=1;jettySize=auto;html=1;exitX=1;exitY=0.5;exitDx=0;exitDy=0;entryX=0;entryY=0.5;entryDx=0;entryDy=0;" parent="1" source="8QhAUfNBpxHzGQiZX4Sa-24" target="8QhAUfNBpxHzGQiZX4Sa-28" edge="1">
          <mxGeometry relative="1" as="geometry" />
        </mxCell>
        <mxCell id="8QhAUfNBpxHzGQiZX4Sa-39" style="edgeStyle=orthogonalEdgeStyle;rounded=0;orthogonalLoop=1;jettySize=auto;html=1;exitX=1;exitY=0.5;exitDx=0;exitDy=0;entryX=0;entryY=0.5;entryDx=0;entryDy=0;" parent="1" source="8QhAUfNBpxHzGQiZX4Sa-24" target="8QhAUfNBpxHzGQiZX4Sa-27" edge="1">
          <mxGeometry relative="1" as="geometry" />
        </mxCell>
        <mxCell id="8QhAUfNBpxHzGQiZX4Sa-24" value="&lt;p style=&quot;margin:0px;margin-top:4px;text-align:center;&quot;&gt;&lt;i&gt;&amp;lt;&amp;lt;Interface&amp;gt;&amp;gt;&lt;/i&gt;&lt;br&gt;&lt;b&gt;ISynthesizerConfigurationService&lt;/b&gt;&lt;/p&gt;&lt;hr size=&quot;1&quot;&gt;&lt;p style=&quot;margin:0px;margin-left:4px;&quot;&gt;+ GetSynthesizerConfiguration(SynthesizerId)&lt;/p&gt;&lt;p style=&quot;margin:0px;margin-left:4px;&quot;&gt;-&amp;gt; struct SynthesizerConfiguration&lt;br&gt;&lt;/p&gt;" style="verticalAlign=top;align=left;overflow=fill;fontSize=12;fontFamily=Helvetica;html=1;" parent="1" vertex="1">
          <mxGeometry x="100" y="325" width="261" height="110" as="geometry" />
        </mxCell>
        <mxCell id="8QhAUfNBpxHzGQiZX4Sa-32" style="edgeStyle=orthogonalEdgeStyle;rounded=0;orthogonalLoop=1;jettySize=auto;html=1;exitX=0;exitY=0.5;exitDx=0;exitDy=0;entryX=1;entryY=0.5;entryDx=0;entryDy=0;" parent="1" source="8QhAUfNBpxHzGQiZX4Sa-25" target="8QhAUfNBpxHzGQiZX4Sa-29" edge="1">
          <mxGeometry relative="1" as="geometry" />
        </mxCell>
        <mxCell id="8QhAUfNBpxHzGQiZX4Sa-25" value="&lt;p style=&quot;margin:0px;margin-top:4px;text-align:center;&quot;&gt;&lt;i&gt;&amp;lt;&amp;lt;Interface&amp;gt;&amp;gt;&lt;/i&gt;&lt;br&gt;&lt;b&gt;ISynthesizerGenerationService&lt;/b&gt;&lt;/p&gt;&lt;hr size=&quot;1&quot;&gt;&lt;p style=&quot;margin:0px;margin-left:4px;&quot;&gt;+ Generate&lt;span style=&quot;background-color: initial;&quot;&gt;Samples(SynthesizerConfiguration, double t0)&lt;/span&gt;&lt;/p&gt;&lt;p style=&quot;margin:0px;margin-left:4px;&quot;&gt;-&amp;gt; struct AudioSamples&lt;br&gt;&lt;/p&gt;" style="verticalAlign=top;align=left;overflow=fill;fontSize=12;fontFamily=Helvetica;html=1;" parent="1" vertex="1">
          <mxGeometry x="100" y="470" width="261" height="110" as="geometry" />
        </mxCell>
        <mxCell id="8QhAUfNBpxHzGQiZX4Sa-27" value="«data structure : class»&lt;br&gt;&lt;b&gt;SynthesizerId&lt;/b&gt;" style="html=1;" parent="1" vertex="1">
          <mxGeometry x="440" y="280" width="160" height="40" as="geometry" />
        </mxCell>
        <mxCell id="8QhAUfNBpxHzGQiZX4Sa-28" value="«data structure : class»&lt;br&gt;&lt;b&gt;OscillatorId&lt;/b&gt;" style="html=1;" parent="1" vertex="1">
          <mxGeometry x="440" y="440" width="160" height="40" as="geometry" />
        </mxCell>
        <mxCell id="8QhAUfNBpxHzGQiZX4Sa-29" value="«data structure : struct»&lt;br&gt;&lt;b&gt;SynthesizerConfiguration&lt;/b&gt;" style="html=1;" parent="1" vertex="1">
          <mxGeometry x="-140" y="360" width="160" height="40" as="geometry" />
        </mxCell>
        <mxCell id="8QhAUfNBpxHzGQiZX4Sa-41" value="«implementation»&lt;br&gt;&lt;b&gt;OscillatorService&lt;/b&gt;" style="html=1;" parent="1" vertex="1">
          <mxGeometry x="640" y="520" width="160" height="40" as="geometry" />
        </mxCell>
        <mxCell id="8QhAUfNBpxHzGQiZX4Sa-43" value="" style="endArrow=block;dashed=1;endFill=0;endSize=12;html=1;rounded=0;entryX=1;entryY=0.5;entryDx=0;entryDy=0;exitX=0;exitY=0.5;exitDx=0;exitDy=0;" parent="1" source="8QhAUfNBpxHzGQiZX4Sa-41" target="8QhAUfNBpxHzGQiZX4Sa-5" edge="1">
          <mxGeometry width="160" relative="1" as="geometry">
            <mxPoint x="580" y="610" as="sourcePoint" />
            <mxPoint x="740" y="610" as="targetPoint" />
          </mxGeometry>
        </mxCell>
        <mxCell id="PZGMw8TPTIG1YA5yIezn-2" value="«implementation»&lt;br&gt;&lt;b&gt;OscillatorService&lt;/b&gt;" style="html=1;" vertex="1" parent="1">
          <mxGeometry x="640" y="360" width="160" height="40" as="geometry" />
        </mxCell>
        <mxCell id="PZGMw8TPTIG1YA5yIezn-3" value="" style="endArrow=block;dashed=1;endFill=0;endSize=12;html=1;rounded=0;entryX=1;entryY=0.5;entryDx=0;entryDy=0;exitX=0;exitY=0.5;exitDx=0;exitDy=0;" edge="1" parent="1" source="PZGMw8TPTIG1YA5yIezn-2" target="8QhAUfNBpxHzGQiZX4Sa-7">
          <mxGeometry width="160" relative="1" as="geometry">
            <mxPoint x="650" y="550" as="sourcePoint" />
            <mxPoint x="610" y="550" as="targetPoint" />
          </mxGeometry>
        </mxCell>
      </root>
    </mxGraphModel>
  </diagram>
</mxfile>
